# xmcd
#
# Track frame offsets: 
#        150
#        18036
#        42096
#        54869
#        82784
#        99477
#        121431
#        135166
#        159615
#        174572
#        196308
#
# Disc length: 2831 seconds
#
# Revision: 0
# Processed by: cddbd v1.5.2PL0 Copyright (c) Steve Scherf et al.
# Submitted via: ExactAudioCopy v1.0b4
#
DISCID=770b0d0b
DTITLE=The Green McDonough Band - The Green McDonough Band
DYEAR=2016
DGENRE=Blues
TTITLE0=Bone To Pick
TTITLE1=Don't Know Why
TTITLE2=Rocket In My Pocket
TTITLE3=Blue Rain
TTITLE4=Mojo Boogie
TTITLE5=Kokomo
TTITLE6=Boogie Like You Wanna
TTITLE7=Hurts Me Too
TTITLE8=Sexy Ways
TTITLE9=Stranded
TTITLE10=Pretty Little Thing
EXTD=
EXTT0=
EXTT1=
EXTT2=
EXTT3=
EXTT4=
EXTT5=
EXTT6=
EXTT7=
EXTT8=
EXTT9=
EXTT10=
PLAYORDER=
